HIERARCHY
ROOT Hips
{
	OFFSET 0.000000 0.000000 0.000000
	CHANNELS 6 Xposition Yposition Zposition Zrotation Yrotation Xrotation 
	JOINT LHipJoint
	{
		OFFSET 0.000000 0.000000 0.000000
		CHANNELS 3 Zrotation Yrotation Xrotation
		JOINT LeftUpLeg
		{
			OFFSET 1.363060 -1.794630 0.839290
			CHANNELS 3 Zrotation Yrotation Xrotation
			JOINT LeftLeg
			{
				OFFSET 2.448110 -6.726130 0.000000
				CHANNELS 3 Zrotation Yrotation Xrotation
				JOINT LeftFoot
				{
					OFFSET 2.562200 -7.039590 0.000000
					CHANNELS 3 Zrotation Yrotation Xrotation
					JOINT LeftToeBase
					{
						OFFSET 0.157640 -0.433110 2.322550
						CHANNELS 3 Zrotation Yrotation Xrotation
						End Site
						{
							OFFSET 0.000000 0.000000 0.000000
						}
					}
				}
			}
		}
	}
	JOINT RHipJoint
	{
		OFFSET 0.000000 0.000000 0.000000
		CHANNELS 3 Zrotation Yrotation Xrotation
		JOINT RightUpLeg
		{
			OFFSET -1.305520 -1.794630 0.839290
			CHANNELS 3 Zrotation Yrotation Xrotation
			JOINT RightLeg
			{
				OFFSET -2.542530 -6.985550 0.000000
				CHANNELS 3 Zrotation Yrotation Xrotation
				JOINT RightFoot
				{
					OFFSET -2.568260 -7.056230 0.000000
					CHANNELS 3 Zrotation Yrotation Xrotation
					JOINT RightToeBase
					{
						OFFSET -0.164730 -0.452590 2.363150
						CHANNELS 3 Zrotation Yrotation Xrotation
						End Site
						{
							OFFSET 0.000000 0.000000 0.000000
						}
					}
				}
			}
		}
	}
	JOINT LowerBack
	{
		OFFSET 0.000000 0.000000 0.000000
		CHANNELS 3 Zrotation Yrotation Xrotation
		JOINT Spine
		{
			OFFSET 0.028270 2.035590 -0.193380
			CHANNELS 3 Zrotation Yrotation Xrotation
			JOINT Spine1
			{
				OFFSET 0.056720 2.048850 -0.042750
				CHANNELS 3 Zrotation Yrotation Xrotation
				JOINT Neck
				{
					OFFSET 0.000000 0.000000 0.000000
					CHANNELS 3 Zrotation Yrotation Xrotation
					JOINT Neck1
					{
						OFFSET -0.054170 1.746240 0.172020
						CHANNELS 3 Zrotation Yrotation Xrotation
						JOINT Head
						{
							OFFSET 0.104070 1.761360 -0.123970
							CHANNELS 3 Zrotation Yrotation Xrotation
							End Site
							{
								OFFSET 0.000000 0.000000 0.000000
							}
						}
					}
				}
				JOINT LeftShoulder
				{
					OFFSET 0.000000 0.000000 0.000000
					CHANNELS 3 Zrotation Yrotation Xrotation
					JOINT LeftArm
					{
						OFFSET 3.362410 1.200890 -0.311210
						CHANNELS 3 Zrotation Yrotation Xrotation
						JOINT LeftForeArm
						{
							OFFSET 4.983000 -0.000000 -0.000000
							CHANNELS 3 Zrotation Yrotation Xrotation
							JOINT LeftHand
							{
								OFFSET 3.483560 -0.000000 -0.000000
								CHANNELS 3 Zrotation Yrotation Xrotation
								JOINT LeftFingerBase
								{
									OFFSET 0.000000 0.000000 0.000000
									CHANNELS 3 Zrotation Yrotation Xrotation
									JOINT LeftHandIndex1
									{
										OFFSET 0.715260 -0.000000 -0.000000
										CHANNELS 3 Zrotation Yrotation Xrotation
										End Site
										{
											OFFSET 0.000000 0.000000 0.000000
										}
									}
								}
								JOINT LThumb
								{
									OFFSET 0.000000 0.000000 0.000000
									CHANNELS 3 Zrotation Yrotation Xrotation
									End Site
									{
										OFFSET 0.000000 0.000000 0.000000
									}
								}
							}
						}
					}
				}
				JOINT RightShoulder
				{
					OFFSET 0.000000 0.000000 0.000000
					CHANNELS 3 Zrotation Yrotation Xrotation
					JOINT RightArm
					{
						OFFSET -3.136600 1.374050 -0.404650
						CHANNELS 3 Zrotation Yrotation Xrotation
						JOINT RightForeArm
						{
							OFFSET -5.241900 -0.000000 -0.000000
							CHANNELS 3 Zrotation Yrotation Xrotation
							JOINT RightHand
							{
								OFFSET -3.444170 -0.000000 -0.000000
								CHANNELS 3 Zrotation Yrotation Xrotation
								JOINT RightFingerBase
								{
									OFFSET 0.000000 0.000000 0.000000
									CHANNELS 3 Zrotation Yrotation Xrotation
									JOINT RightHandIndex1
									{
										OFFSET -0.622530 -0.000000 -0.000000
										CHANNELS 3 Zrotation Yrotation Xrotation
										End Site
										{
											OFFSET 0.000000 0.000000 0.000000
										}
									}
								}
								JOINT RThumb
								{
									OFFSET 0.000000 0.000000 0.000000
									CHANNELS 3 Zrotation Yrotation Xrotation
									End Site
									{
										OFFSET 0.000000 0.000000 0.000000
									}
								}
							}
						}
					}
				}
			}
		}
	}
}
MOTION
Frames: 8
Frame Time: 0.008333
25.275320 16.222484 2.344775 -178.589836 -80.540425 -168.554946 -10.036511 -0.244348 2.303210 -10.700910 1.815836 -49.048151 -1.309465 2.176624 47.011297 1.862203 7.234205 -15.389906 -1.026700 -0.000000 -12.982600 10.167748 -5.093262 0.337471 0.050300 -5.939867 6.778767 0.949760 -2.231256 26.019769 0.707485 13.329339 14.543946 4.595400 -0.000000 -89.944400 -8.683005 3.505697 -4.496099 -2.700841 3.988315 -4.294556 -5.603428 3.846733 -0.750883 7.200003 -1.832356 -9.302427 -2.623387 -0.182015 -0.543363 0.000000 0.000000 0.000000 -5.807352 18.362375 2.816417 -44.961481 16.054097 8.304891 -5.374950 -1.687329 -0.019824 3.158991 7.764021 0.224455 -0.147774 -0.015060 -0.000000 0.000000 0.000000 0.000000 0.000000 0.000000 0.000000 7.755332 7.262856 1.115125 50.004439 37.820438 23.754853 0.824552 69.984586 -0.022260 -4.033689 8.882033 -0.334905 0.061884 -0.500541 -0.000000 0.000000 0.000000 0.000000 0.000000 0.000000 0.000000 
25.107864 16.208089 2.362841 178.756596 -80.684597 -166.431496 -10.026163 -0.178989 2.013878 -11.480572 2.313989 -47.935098 -1.372451 2.179231 47.612018 1.810318 6.879948 -16.169145 -1.136900 0.000000 -13.439100 10.435991 -5.086896 0.160721 -0.964937 -6.685971 5.279218 0.609776 -2.515308 30.070989 0.494001 13.322295 16.705104 5.160700 0.000000 -89.518600 -9.005118 3.324166 -4.033706 -2.781398 3.832819 -4.250854 -5.787709 3.692845 -0.933115 7.512657 -1.542156 -9.164491 -2.816938 -0.198189 -0.522558 0.000000 0.000000 0.000000 -6.071345 17.631773 2.913885 -45.887076 14.434286 8.314838 -5.306665 -1.070178 -0.017975 3.942255 7.489590 0.266795 -0.135440 -0.004141 -0.000000 0.000000 0.000000 0.000000 0.000000 0.000000 0.000000 8.763751 7.595804 1.145439 51.881865 35.934467 24.066779 0.886228 68.552807 -0.024748 -4.711288 9.229781 -0.406125 0.076310 -0.494877 -0.000000 0.000000 0.000000 0.000000 0.000000 0.000000 0.000000 
24.943784 16.193410 2.380257 175.740895 -80.872828 -163.932926 -9.987228 -0.108738 1.732718 -12.310215 2.772727 -46.775293 -1.439696 2.162823 48.113298 1.767533 6.535137 -16.987120 -1.244800 -0.000000 -13.889001 10.735161 -5.045509 -0.019637 -2.003722 -7.484894 3.642918 0.290716 -2.773188 34.244232 0.246839 12.879134 18.672032 5.512800 -0.000000 -87.845300 -9.337048 3.110397 -3.565333 -2.860479 3.645265 -4.203374 -5.965965 3.505707 -1.115338 7.808099 -1.264852 -9.002255 -3.008877 -0.214325 -0.495501 0.000000 0.000000 0.000000 -6.292140 16.840718 3.014247 -46.884694 12.757972 8.401217 -5.233290 -0.595858 -0.016221 4.677232 7.128160 0.298538 -0.122893 0.005619 -0.000000 0.000000 0.000000 0.000000 0.000000 0.000000 0.000000 9.769814 7.862773 1.159734 53.772567 34.019248 24.233523 0.946928 66.861192 -0.027264 -5.410619 9.639260 -0.486171 0.088771 -0.488016 -0.000000 0.000000 0.000000 0.000000 0.000000 0.000000 0.000000 
24.782413 16.178968 2.397514 172.553917 -81.086212 -161.243130 -9.919552 -0.028002 1.466932 -13.147643 3.196192 -45.586207 -1.508197 2.132633 48.524084 1.735875 6.211878 -17.833038 -1.350300 0.000000 -14.305200 11.051617 -4.966752 -0.201445 -3.000230 -8.285446 1.913617 0.001061 -3.012761 38.477277 -0.021686 11.880036 20.294017 5.524701 -0.000000 -85.084100 -9.639379 2.875906 -3.100629 -2.930455 3.433987 -4.154879 -6.137470 3.293120 -1.302306 8.074780 -0.988441 -8.807847 -3.194358 -0.230147 -0.459155 0.000000 0.000000 0.000000 -6.485382 15.969390 3.112842 -47.934951 11.071466 8.554169 -5.155851 -0.303097 -0.014527 5.353633 6.662836 0.317383 -0.110625 0.013623 -0.000000 0.000000 0.000000 0.000000 0.000000 0.000000 0.000000 10.733980 8.074104 1.158066 55.701446 32.048303 24.197383 1.005562 64.896212 -0.029501 -6.083164 10.098348 -0.571348 0.098313 -0.479462 -0.000000 0.000000 0.000000 0.000000 0.000000 0.000000 0.000000 
24.623113 16.165482 2.414770 169.271682 -81.313015 -158.432270 -9.822600 0.066961 1.223839 -13.972010 3.573573 -44.377949 -1.576069 2.092252 48.842747 1.717392 5.925929 -18.690385 -1.454200 0.000000 -14.665100 11.378343 -4.851701 -0.385023 -3.924725 -9.067316 0.111139 -0.260190 -3.244905 42.724972 -0.301343 10.279888 21.439244 5.122500 0.000000 -81.506900 -9.900029 2.625695 -2.648776 -2.989836 3.203187 -4.103131 -6.303576 3.059474 -1.477567 8.323086 -0.750255 -8.598606 -3.370427 -0.245204 -0.417873 0.000000 0.000000 0.000000 -6.660359 15.048706 3.201774 -49.009969 9.380556 8.793231 -5.072862 -0.293757 -0.012912 5.972785 6.125095 0.323929 -0.098913 0.019536 -0.000000 0.000000 0.000000 0.000000 0.000000 0.000000 0.000000 11.666319 8.190127 1.147748 57.645525 30.087016 23.955033 1.062721 62.635707 -0.031354 -6.725002 10.589383 -0.660556 0.105173 -0.468666 -0.000000 0.000000 0.000000 0.000000 0.000000 0.000000 0.000000 
24.465605 16.153798 2.432286 165.991928 -81.541822 -155.595205 -9.700967 0.177897 1.009086 -14.758726 3.898677 -43.157869 -1.642197 2.045927 49.067926 1.712188 5.685235 -19.542368 -1.557200 -0.000000 -14.954200 11.705476 -4.703182 -0.569390 -4.746074 -9.807695 -1.746223 -0.500713 -3.478348 46.942147 -0.585200 8.098300 22.005256 4.301501 -0.000000 -77.429600 -10.104570 2.370007 -2.218878 -3.036332 2.962455 -4.047786 -6.463649 2.814507 -1.631598 8.552168 -0.559867 -8.380027 -3.535003 -0.259263 -0.372792 0.000000 0.000000 0.000000 -6.825145 14.094989 3.271296 -50.107460 7.548153 9.094181 -4.983782 -0.284293 -0.011171 6.544891 5.390613 0.311074 -0.087941 0.023435 -0.000000 0.000000 0.000000 0.000000 0.000000 0.000000 0.000000 12.554654 8.195131 1.131229 59.597506 28.151353 23.469222 1.117089 60.077726 -0.032745 -7.323864 11.091757 -0.751195 0.109238 -0.455220 -0.000000 0.000000 0.000000 0.000000 0.000000 0.000000 0.000000 
24.309265 16.144626 2.450412 162.802252 -81.761526 -152.818860 -9.563182 0.304211 0.825224 -15.486313 4.167143 -41.932225 -1.706458 1.998399 49.198964 1.718946 5.492075 -20.372804 -1.659300 0.000000 -15.167299 12.021670 -4.523518 -0.753985 -5.438922 -10.485433 -3.645693 -0.730993 -3.717755 51.086315 -0.869107 5.428580 21.931498 3.137400 -0.000000 -73.115700 -10.241830 2.113171 -1.815901 -3.068104 2.715528 -3.992129 -6.618195 2.561608 -1.771114 8.759515 -0.404430 -8.151050 -3.684692 -0.272105 -0.322944 0.000000 0.000000 0.000000 -6.995656 13.092450 3.324021 -51.185911 5.737228 9.452809 -4.888147 -0.583272 -0.009502 7.094883 4.587875 0.286016 -0.077800 0.025287 -0.000000 0.000000 0.000000 0.000000 0.000000 0.000000 0.000000 13.376445 8.110883 1.114109 61.563496 26.225702 22.676676 1.168376 57.236152 -0.033594 -7.865985 11.586147 -0.840159 0.110590 -0.439027 -0.000000 0.000000 0.000000 0.000000 0.000000 0.000000 0.000000 
24.153674 16.138751 2.469320 159.743979 -81.966608 -150.138535 -9.416772 0.443166 0.674217 -16.145309 4.370315 -40.704048 -1.768891 1.951818 49.230977 1.736169 5.347876 -21.164694 -1.760599 0.000000 -15.307000 12.319578 -4.317544 -0.935539 -5.993062 -11.086442 -5.584007 -0.959515 -3.964034 55.114259 -1.150100 2.429593 21.206599 1.772500 -0.000000 -68.723100 -10.313065 1.859093 -1.446933 -3.085812 2.466803 -3.934905 -6.767042 2.305654 -1.883185 8.951216 -0.300892 -7.925760 -3.818417 -0.283491 -0.272121 0.000000 0.000000 0.000000 -7.178752 12.076507 3.354817 -52.230371 3.868303 9.871354 -4.784684 -1.084307 -0.007900 7.643969 3.695795 0.247456 -0.068487 0.025599 -0.000000 0.000000 0.000000 0.000000 0.000000 0.000000 0.000000 14.134874 7.920383 1.101089 63.517497 24.349144 21.557454 1.216153 54.125315 -0.033986 -8.373492 12.049096 -0.927246 0.109909 -0.419942 -0.000000 0.000000 0.000000 0.000000 0.000000 0.000000 0.000000 
